<?xml version="1.0" encoding="UTF-8"?>
<svg id="Layer_1" data-name="Layer 1" xmlns="http://www.w3.org/2000/svg" viewBox="0 0 485.56 120.4">
  <defs>
    <style>
      .cls-1 {
        fill: #f90000;
        stroke-width: 0px;
      }
    </style>
  </defs>
  <path class="cls-1" d="M377.6,74.97c1.5-7.08,3.03-14.16,4.51-21.24,3.26-15.64,6.6-31.26,9.65-46.93.74-3.81,2.18-5.5,6.2-5.21,4.14.3,8.33.16,12.49.02,2.98-.1,4.23,1.05,4.15,4.08-.15,5.66-.11,11.33-.11,16.99,0,29.99-.08,59.98.13,89.97.03,4.77-1.31,6.32-6.16,6.23-11.64-.21-11.6.02-11.63-11.35-.03-10.66-.16-21.32-.28-31.98-.01-1.12-.25-2.23-1.27-3.47-1.12,5.07-2.28,10.13-3.35,15.21-1.91,9.12-3.89,18.23-5.56,27.39-.57,3.13-1.99,4.05-5,4.15-13.18.42-13.24.5-16.09-12.2-2.8-12.46-5.46-24.95-8.18-37.43-.41.02-.81.04-1.22.06-.12,1.88-.35,3.75-.35,5.63-.05,13-.18,25.99,0,38.99.05,3.66-.96,4.96-4.76,4.98-12.89.06-12.88.19-12.88-12.84-.02-32.66.04-65.31-.17-97.97-.03-4.91,1.16-7.11,6.41-6.48,3.45.41,7.01.33,10.48,0,4.24-.41,5.74,1.43,6.59,5.41,4.58,21.48,9.42,42.89,14.2,64.33.27,1.22.75,2.4,1.13,3.59.36.03.71.05,1.07.08Z"/>
  <path class="cls-1" d="M126.17,60.49c0-1.58,0-3.16,0-4.75-.03-16.33.01-32.66-.17-48.98-.04-3.55.8-4.97,4.68-5.02,12.81-.15,12.8-.31,12.8,12.41,0,32.66.03,65.31.02,97.97,0,6.78-.03,6.78-6.82,6.8-11.22.04-11.44.1-14.66-10.57-4.47-14.81-8.57-29.74-12.84-44.61-.64-2.22-1.37-4.42-2.87-6.67-.19.95-.54,1.89-.54,2.84.04,17.66,0,35.32.3,52.97.07,4.34-.71,6.28-5.66,6.17-12.35-.28-12.33-.04-12.33-12.51,0-32.66,0-65.31,0-97.97q0-6.71,6.44-6.74,13.14-.06,16.75,12.49c4.08,14.23,8.11,28.47,12.19,42.7.35,1.23.86,2.42,1.29,3.63.47-.05.95-.11,1.42-.16Z"/>
  <path class="cls-1" d="M243.06,70.59c5.4,15.88,10.68,31.42,16.33,48.03-6.29,0-11.97.18-17.62-.19-.9-.06-1.91-2.51-2.41-4-3.56-10.74-6.99-21.52-10.49-32.27-.34-1.06-.88-2.05-2.16-3.02-.14,1.35-.39,2.7-.39,4.05-.02,10.33-.09,20.65.1,30.98.06,3.5-1.21,4.69-4.63,4.64-16.65-.26-13.29,1.85-13.38-12.84-.19-32.64,0-65.29-.2-97.93-.03-4.75,1.32-6.61,6.2-6.29,5.47.36,10.99.08,16.48.1,17.18.05,25.19,6.86,26.95,24.01.76,7.4.41,14.98-.09,22.44-.66,9.88-4.66,18-14.68,22.29ZM226.35,35.71c0,4.31-.14,8.63.09,12.92.06,1.22.89,3.02,1.86,3.46,5.63,2.55,11.06-.12,11.89-6.24.75-5.54.64-11.21.63-16.82,0-1.75-.67-3.6-1.42-5.23-1.64-3.57-6.61-5.82-10.58-3.96-1.5.7-2.08,4.15-2.37,6.43-.39,3.1-.1,6.29-.11,9.43Z"/>
  <path class="cls-1" d="M422.84,118.94c2.64-13.42,5.04-25.63,7.44-37.83,4.91-24.96,9.88-49.92,14.64-74.91.64-3.36,2-4.26,5.27-4.25,12.92.02,12.9-.08,15.38,12.53,6.37,32.47,12.77,64.94,19.12,97.42.4,2.06.53,4.17.87,6.98-5.37,0-10.17.28-14.9-.19-1.24-.12-2.85-2.47-3.23-4.05-1.34-5.48-1.97-11.14-3.41-16.59-.4-1.49-2.52-2.91-4.16-3.58-1.41-.57-3.27,0-4.94.02q-9.62.13-11.46,9.42c-.7,3.59-1.54,7.17-1.95,10.8-.39,3.44-2.16,4.42-5.37,4.27-4.11-.19-8.23-.05-13.29-.05ZM448.97,76.89h10.96c-1.66-10.24-3.23-19.95-4.81-29.65-.51.02-1.01.04-1.52.05-1.52,9.67-3.03,19.35-4.64,29.6Z"/>
  <path class="cls-1" d="M266.92,118.59c1.21-6.65,2.25-12.81,3.45-18.93,6.02-30.67,12.17-61.31,18.01-92.01.86-4.54,2.65-5.88,7.19-5.76,11.55.31,11.5.09,13.74,11.62,6.4,32.97,12.87,65.92,19.28,98.88.37,1.89.51,3.83.86,6.48-5.42,0-10.22.24-14.96-.17-1.15-.1-2.72-2.21-3.06-3.64-1.3-5.49-2.4-11.06-3.1-16.66-.38-2.98-1.58-3.93-4.41-4.05-14.4-.62-14.4-.66-17.28,13.4q-2.3,11.23-13.6,11.15c-1.79-.01-3.58-.18-6.13-.32ZM303.93,76.97c-1.77-10.37-3.39-19.85-5-29.33-.51,0-1.02,0-1.54,0-1.47,9.64-2.94,19.29-4.48,29.33h11.01Z"/>
  <path class="cls-1" d="M153.08,60.08c0-17.67.09-35.33-.07-53-.04-3.97.94-5.55,5.28-5.45,12.16.28,24.33.18,36.5-.02,3.81-.06,5.41,1.12,5.4,5.07-.07,15.36,1.4,12.72-12.51,12.98-4.16.08-8.33.06-12.5-.05-2.99-.08-4.12,1.16-4.07,4.17.14,8.16.13,16.33.03,24.5-.04,3.02,1.16,4.16,4.15,4.05,4.16-.15,8.33,0,12.5-.04,2.65-.03,4.12,1.05,3.96,3.85,0,.17,0,.33,0,.5q.54,13.27-12.92,13.25c-8.9,0-7.61-.6-7.71,7.8-.06,5.67.37,11.37-.12,16.99-.47,5.33,1.67,6.58,6.53,6.28,5.98-.37,12,.05,17.99-.13,3.52-.1,4.73,1.4,4.68,4.75-.24,15.98,1.89,12.93-12.66,13.15-9.83.15-19.67-.25-29.49.05-4.19.13-5.04-1.47-5.01-5.21.14-17.83.06-35.67.06-53.5h-.02Z"/>
  <path class="cls-1" d="M.79,60.23c0-12.63-.97-25.36.25-37.88C2.58,6.54,12.49-.59,29.08.04c12.85.49,22.02,10.03,23.26,24.21q.84,9.63-8.84,9.6-7.46-.02-8.33-7.63c-.53-4.7-3.63-8.08-7.75-8.45-4.51-.41-7.86,1.83-9.21,6.62-.62,2.2-.77,4.59-.78,6.9-.06,19.15-.05,38.29,0,57.44,0,2.14.17,4.36.75,6.41,1.22,4.26,4.07,6.86,8.69,6.8,3.88-.05,7.62-3.84,8.29-8.09,1.24-7.82,1.24-7.92,9.04-7.79,8.71.14,8.52-1.79,8.14,8.77-.43,11.88-6.72,21.01-16.21,24.06-11.35,3.65-23.85.61-30.13-7.44C1.39,105.49.2,98.44.08,91.2c-.16-10.32-.04-20.64-.04-30.97.25,0,.5,0,.75,0Z"/>
  <path class="cls-1" d="M79.59,60c0,17.64-.13,35.28.09,52.91.06,4.56-1.29,6.05-5.94,5.96-11.7-.22-11.69,0-11.69-11.59,0-33.28.09-66.56-.1-99.84-.03-4.66,1.4-5.97,5.94-5.89,11.67.2,11.69,0,11.7,11.52.02,15.64,0,31.28,0,46.93Z"/>
</svg>